<?xml version="1.0" standalone="no"?>
<!DOCTYPE svg PUBLIC "-//W3C//DTD SVG 20010904//EN"
 "http://www.w3.org/TR/2001/REC-SVG-20010904/DTD/svg10.dtd">
<svg version="1.0" xmlns="http://www.w3.org/2000/svg"
 width="500.000000pt" height="500.000000pt" viewBox="0 0 500.000000 500.000000"
 preserveAspectRatio="xMidYMid meet">
<metadata>
Created by potrace 1.14, written by Peter Selinger 2001-2017
</metadata>
<g transform="translate(0.000000,500.000000) scale(0.100000,-0.100000)"
fill="#000000" stroke="none">
<path d="M2265 3915 c-317 -56 -582 -198 -805 -431 -152 -160 -250 -323 -319
-529 -53 -161 -71 -276 -71 -455 0 -178 18 -294 71 -455 116 -351 386 -663
722 -832 96 -48 284 -108 396 -127 124 -21 359 -21 482 0 515 88 955 464 1118
959 59 180 74 291 68 503 -4 156 -8 191 -36 296 -17 66 -34 123 -39 128 -4 4
-58 -43 -121 -106 l-112 -113 10 -59 c27 -159 21 -323 -16 -472 -88 -353 -354
-659 -688 -787 -162 -62 -251 -79 -425 -79 -134 0 -169 4 -261 27 -445 110
-768 443 -865 892 -23 109 -23 341 0 450 100 462 439 801 901 901 109 23 331
23 443 0 115 -24 206 -57 309 -110 l88 -46 103 103 103 103 -58 36 c-148 92
-321 162 -479 194 -110 22 -413 28 -519 9z"/>
<path d="M3018 2963 l-718 -718 -203 203 -202 202 -103 -103 -102 -102 303
-303 302 -302 820 820 820 820 -100 100 -100 100 -717 -717z"/>
</g>
</svg>
